<svg width="367" height="174" viewBox="0 0 367 174" fill="none" xmlns="http://www.w3.org/2000/svg">
<path d="M366.823 164.681V170.717L296.291 171.367L295.538 171.381L268.731 171.627L268.091 171.636L259.943 171.706H259.701L210.033 172.166L128.502 172.922H128.432L107.702 173.117L107.479 173.122L15.3675 173.967V167.003L37.0259 154.003L80.4819 153.641L81.4105 153.636L81.7169 153.632L82.6455 153.618L103.51 153.446L104.443 153.441L104.74 153.437L105.669 153.432L112.359 153.376L112.535 153.372L129.04 153.232H129.175L257.965 152.146L261.117 152.123H261.433L263.838 152.1L281.318 151.956L282.246 151.942L283.105 151.932H283.551L288.988 151.891L290.065 151.877L291.509 151.867L296.035 151.826L303.218 151.765L304.146 151.756L305.762 151.747H306.064L340.749 151.45L366.823 164.681Z" fill="#65617D"/>
<path opacity="0.2" d="M366.823 164.681V170.717L296.291 171.367L295.538 171.381L268.731 171.627L268.091 171.636L259.943 171.706H259.701L210.033 172.166L128.502 172.922H128.432L107.702 173.117L107.479 173.122L15.3675 173.967V167.003L37.0259 154.003L80.4819 153.641L81.4105 153.636L81.7169 153.632L82.6455 153.618L103.51 153.446L104.443 153.441L104.74 153.437L105.669 153.432L112.359 153.376L112.535 153.372L129.04 153.232H129.175L257.965 152.146L261.117 152.123H261.433L263.838 152.1L281.318 151.956L282.246 151.942L283.105 151.932H283.551L288.988 151.891L290.065 151.877L291.509 151.867L296.035 151.826L303.218 151.765L304.146 151.756L305.762 151.747H306.064L340.749 151.45L366.823 164.681Z" fill="black"/>
<path d="M103.58 141.472V152.842C103.58 153.381 103.427 153.908 103.14 154.364C102.852 154.819 102.441 155.183 101.955 155.414C101.592 155.59 101.196 155.685 100.794 155.693L84.5908 156.037C84.158 156.047 83.7288 155.956 83.3372 155.772C82.8422 155.545 82.4228 155.181 82.129 154.722C81.8351 154.264 81.6792 153.73 81.6798 153.186V141.472H103.58Z" fill="#3F3D56"/>
<path opacity="0.1" d="M103.58 141.472V152.842C103.58 153.381 103.427 153.908 103.14 154.364C102.852 154.819 102.441 155.183 101.955 155.414C101.592 155.59 101.196 155.685 100.794 155.693L84.5908 156.037C84.158 156.047 83.7288 155.956 83.3372 155.772C82.8422 155.545 82.4228 155.181 82.129 154.722C81.8351 154.264 81.6792 153.73 81.6798 153.186V141.472H103.58Z" fill="black"/>
<path d="M103.533 109.595V145.838C103.533 147.555 103.381 149.237 103.095 150.688C102.808 152.139 102.399 153.3 101.914 154.037C101.553 154.597 101.159 154.9 100.758 154.925L84.6128 156.02C84.1816 156.053 83.754 155.764 83.3638 155.177C82.8705 154.453 82.4526 153.292 82.1598 151.83C81.8671 150.369 81.7117 148.669 81.7123 146.933V109.595H103.533Z" fill="#3F3D56"/>
<path opacity="0.1" d="M73.1696 59.1797H64.3484V67.1095H73.1696V59.1797Z" fill="black"/>
<path d="M146.711 30.6535V109.089C146.702 109.568 146.403 110.026 145.876 110.369C145.349 110.712 144.634 110.913 143.879 110.931L2.94157 113.309H2.90481C2.13737 113.303 1.40404 113.107 0.861338 112.763C0.318636 112.419 0.00953448 111.954 0 111.467V30.6535C0.00953448 30.1668 0.318636 29.7018 0.861338 29.3577C1.40404 29.0136 2.13737 28.8176 2.90481 28.8115H143.806C144.573 28.8176 145.307 29.0136 145.849 29.3577C146.392 29.7018 146.701 30.1668 146.711 30.6535Z" fill="#65617D"/>
<path opacity="0.1" d="M1.8571 28.3472V112.474H1.83389C1.34938 112.468 0.886412 112.273 0.543788 111.93C0.201164 111.587 0.0060194 111.124 0 110.64V30.1811C0.0060194 29.6966 0.201164 29.2336 0.543788 28.891C0.886412 28.5484 1.34938 28.3532 1.83389 28.3472H1.8571Z" fill="black"/>
<path d="M9.28549 33.9185H140.211V102.634L9.28549 104.488V33.9185Z" fill="#FFFFFA"/>
<path d="M308.278 30.6535V111.467C308.268 111.958 307.925 112.427 307.324 112.771C306.723 113.116 305.912 113.309 305.067 113.309L151.194 110.931C150.37 110.913 149.59 110.712 149.015 110.369C148.439 110.026 148.113 109.568 148.104 109.089V30.6535C148.114 30.1668 148.451 29.7018 149.044 29.3577C149.636 29.0136 150.437 28.8176 151.274 28.8115H305.075C305.919 28.8127 306.727 29.0066 307.326 29.3512C307.926 29.6959 308.268 30.1636 308.278 30.6535Z" fill="#65617D"/>
<path d="M298.064 33.9185H155.532V102.634L298.064 104.488V33.9185Z" fill="#FFFFFA"/>
<path opacity="0.1" d="M366.823 164.681V170.717L296.291 171.367L295.538 171.381L268.731 171.627L268.091 171.636L259.943 171.706H259.701L210.033 172.165L128.502 172.922H128.432L107.702 173.117L107.479 173.122L15.3675 173.967V167.003L109.388 166.385H109.611L128.641 166.255H128.729L260.156 165.387H260.291L260.37 165.382H260.588L262.812 165.368H263.49L298.073 165.136L300.116 165.127L300.571 165.122L366.823 164.681Z" fill="black"/>
<path d="M192.33 67.1095C205.492 67.1095 216.161 56.4399 216.161 43.2783C216.161 30.1167 205.492 19.4471 192.33 19.4471C179.169 19.4471 168.499 30.1167 168.499 43.2783C168.499 56.4399 179.169 67.1095 192.33 67.1095Z" fill="#FBBEBE"/>
<path d="M216.166 92.0271C216.166 92.0271 169.971 97.5984 174.381 92.0271C175.979 90.0121 176.42 84.0415 176.331 77.2399C176.304 75.1739 176.229 73.0336 176.122 70.9026C175.612 60.6886 174.381 50.7067 174.381 50.7067C174.381 50.7067 214.773 31.6714 210.131 46.7603C208.273 52.8563 208.882 61.4175 210.293 69.4541C210.706 71.7986 211.184 74.0968 211.686 76.2789C212.91 81.6013 214.405 86.8576 216.166 92.0271Z" fill="#EFC4AC"/>
<path opacity="0.1" d="M216.166 92.0271C216.166 92.0271 169.971 97.5984 174.381 92.0271C175.979 90.0121 176.42 84.0415 176.331 77.2399C183.374 74.2314 192.335 76.4739 192.335 76.4739C201.769 74.5936 207.818 74.9604 211.686 76.2789C212.91 81.6013 214.405 86.8576 216.166 92.0271Z" fill="black"/>
<path d="M128.483 173.447V173.057L210.019 172.17L259.696 171.706H259.836L259.785 172.393L259.854 171.706H259.943V171.627L260.579 165.382L260.82 163.019L260.894 162.281L260.959 161.664L263.828 152.095L266.698 142.54L269.112 134.494L272.798 122.2C272.798 122.2 270.709 117.325 269.548 115.933C268.388 114.54 267.227 105.022 267.227 105.022C267.227 105.022 257.319 95.5835 252.988 94.497C251.172 94.0328 247.588 93.4153 243.781 92.64C242.356 92.3521 240.893 92.0457 239.487 91.7114C238.693 91.5303 237.913 91.34 237.165 91.1496C235.71 90.7862 234.277 90.343 232.871 89.8218C232.133 89.554 231.432 89.1969 230.781 88.7586C227.369 86.2562 218.817 85.973 218.487 85.973C218.487 85.9622 218.487 85.9513 218.487 85.9405V85.8987C218.499 85.7039 218.499 85.5085 218.487 85.3137C218.487 85.128 218.487 84.9098 218.446 84.6637C218.446 84.5894 218.446 84.5105 218.413 84.4316C218.39 84.2644 218.362 84.088 218.32 83.9023C218.306 83.8193 218.288 83.7372 218.265 83.6562C218.13 83.0968 217.936 82.5535 217.684 82.0359C217.652 81.9616 217.61 81.8827 217.573 81.8084C217.345 81.3795 217.081 80.971 216.784 80.5874C216.723 80.5085 216.658 80.4249 216.589 80.3459C216.208 79.8975 215.785 79.487 215.326 79.1203C215.2 79.0228 215.07 78.9206 214.936 78.8278C214.861 78.7669 214.782 78.711 214.699 78.6607L214.286 78.3914L213.9 78.1685C213.562 77.9828 213.204 77.8017 212.814 77.63C212.693 77.5742 212.563 77.5232 212.433 77.4721C212.303 77.421 212.099 77.3421 211.927 77.2771H211.899L211.551 77.1378C211.287 77.0496 211.017 76.9707 210.734 76.8917L210.302 76.7803L209.838 76.6736L209.374 76.576C208.909 76.4832 208.413 76.3996 207.893 76.3346L207.363 76.2696L206.82 76.2139L206.258 76.1675L205.46 76.1211L204.531 76.0886C200.436 76.0882 196.352 76.5224 192.349 77.3839C189.568 76.765 186.719 76.5029 183.871 76.6039H183.467L183.003 76.6318H182.706L182.107 76.6875C181.907 76.6875 181.703 76.7293 181.503 76.7571C181.304 76.785 181.095 76.8082 180.895 76.8407L180.589 76.8917C180.287 76.9428 179.981 76.9986 179.66 77.0636C179.558 77.0821 179.456 77.1053 179.354 77.1332C178.95 77.2214 178.546 77.3282 178.147 77.4489C177.947 77.5046 177.747 77.5696 177.548 77.6393C177.446 77.6671 177.348 77.7042 177.251 77.7414L176.953 77.8482L176.661 77.9642L176.313 78.1035C176.136 78.1778 175.965 78.2567 175.793 78.3403C175.695 78.3821 175.598 78.4285 175.505 78.4796C175.412 78.5307 175.315 78.5724 175.226 78.6235C174.177 79.1659 173.206 79.8502 172.343 80.657L172.106 80.8845L171.874 81.1213C171.795 81.2002 171.721 81.2838 171.647 81.3674C171.344 81.6981 171.062 82.047 170.802 82.412C170.728 82.5095 170.658 82.607 170.588 82.7091C170.294 83.1436 170.027 83.5964 169.79 84.0648C169.729 84.1762 169.674 84.2923 169.618 84.4037C169.239 85.1881 168.928 86.0036 168.689 86.8412C168.603 87.1507 168.524 87.4602 168.453 87.7697C168.453 87.7697 158.624 92.106 150.471 95.2445C148.303 96.0802 146.26 96.837 144.552 97.408C144.055 97.5752 143.591 97.7284 143.159 97.8723C142.222 98.2109 141.248 98.4354 140.257 98.5409C139.79 98.5485 139.325 98.592 138.864 98.6709C135.118 99.2791 128.697 101.921 127.996 104.572C127.939 104.784 127.923 105.004 127.949 105.222C127.949 105.222 127.949 105.254 127.949 105.273C128.414 108.523 125.164 108.058 125.164 108.058C125.164 108.058 124.003 116.648 122.378 118.969C121.203 120.64 120.4 124.368 120.298 127.182C120.24 128.059 120.309 128.939 120.502 129.796C120.502 129.819 120.502 129.842 120.502 129.861C120.688 130.483 120.242 132.182 119.486 134.36C118.664 136.751 117.466 139.722 116.315 142.526C114.578 146.76 112.944 150.605 112.842 151.45C112.8 151.826 112.679 152.499 112.512 153.367C111.834 156.905 110.33 163.641 109.587 166.367C109.035 168.4 108.232 171.186 107.679 173.099C107.679 173.154 107.647 173.21 107.633 173.261L128.446 173.057V173.447H128.511H128.483Z" fill="#4F6D7A"/>
<path opacity="0.1" d="M136.079 118.723C136.079 118.723 162.542 132.419 172.06 130.794L136.079 118.723Z" fill="black"/>
<path opacity="0.1" d="M189.935 113.152C189.935 113.152 215.702 121.509 224.291 122.669C232.88 123.83 189.935 113.152 189.935 113.152Z" fill="black"/>
<path opacity="0.1" d="M218.515 86.2608C205.051 88.7401 179.702 88.2062 168.745 87.8301C172.761 73.4376 192.344 78.331 192.344 78.331C216.584 73.4933 218.441 83.5309 218.515 86.2608Z" fill="black"/>
<path d="M218.515 85.3323C205.051 87.8115 179.702 87.2776 168.745 86.9015C172.761 72.509 192.344 77.4025 192.344 77.4025C216.584 72.5647 218.441 82.6023 218.515 85.3323Z" fill="#4F6D7A"/>
<path opacity="0.1" d="M210.293 69.4541C209.611 69.7589 208.914 70.0286 208.204 70.2619C203.199 71.989 198.152 73.73 192.883 74.3614C187.613 74.9929 182.084 74.4357 177.487 71.8079C177.005 71.5353 176.54 71.233 176.095 70.9026C175.584 60.6886 174.354 50.7067 174.354 50.7067C174.354 50.7067 214.745 31.6714 210.103 46.7603C208.255 52.8563 208.882 61.4175 210.293 69.4541Z" fill="black"/>
<path d="M185.793 6.02957C185.131 6.20458 184.436 6.22226 183.766 6.08119C183.095 5.94012 182.467 5.64421 181.931 5.21709L182.896 6.55885C182.327 6.62453 181.751 6.56506 181.207 6.38462C180.663 6.20418 180.165 5.90713 179.748 5.51424C179.661 6.71536 179.711 7.92255 179.897 9.11236C178.299 9.18943 176.726 8.69574 175.459 7.71954C175.434 8.13838 175.538 8.55474 175.757 8.91253C175.976 9.27031 176.3 9.55232 176.684 9.72056C175.079 9.52881 173.459 9.92762 172.126 10.8426C170.794 11.7575 169.839 13.1261 169.442 14.6929L171.865 14.9158C169.96 15.3226 168.251 16.3656 167.018 17.8732C166.275 18.8018 165.709 19.9903 166.034 21.1231C166.359 22.256 167.928 22.9802 168.782 22.1724C167.567 23.6227 166.684 25.3214 166.195 27.1492C165.705 28.977 165.622 30.8897 165.95 32.7532C166.171 33.5472 166.243 34.375 166.164 35.1953C166.011 35.9613 165.528 36.6252 165.286 37.3727C164.822 38.7284 165.263 40.2002 165.676 41.5512L167.854 48.7103C168.643 51.2963 169.428 53.887 170.458 56.3894C171.188 57.9715 171.809 59.6019 172.315 61.2689C172.9 63.516 172.924 65.9767 174.172 67.9405C175.028 69.1764 176.173 70.1851 177.506 70.8794C182.098 73.5072 187.646 74.0643 192.901 73.4329C198.157 72.8015 203.199 71.0605 208.199 69.3334C209.31 68.9988 210.376 68.5311 211.375 67.9405C214.834 65.6749 215.604 61.0414 216.25 56.9605C216.969 52.4106 217.93 47.87 219.634 43.5894C220.646 41.0405 221.956 38.4545 221.733 35.7245C221.45 32.0986 218.58 29.1597 217.87 25.5941C217.632 24.4022 217.643 23.1741 217.902 21.9867C218.123 21.2792 218.246 20.5452 218.269 19.8046C218.19 18.3096 216.965 17.1582 215.813 16.1972C213.315 14.111 210.737 12.1394 208.078 10.2823C207.944 9.35378 209.207 8.9545 209.778 8.22095C210.586 7.18562 209.75 5.54209 208.524 5.05924C207.298 4.5764 205.924 4.8921 204.647 5.21245C204.731 4.55893 204.601 3.89603 204.277 3.32231C203.953 2.74859 203.453 2.29471 202.85 2.02817C202.248 1.76163 201.575 1.69666 200.933 1.84293C200.291 1.9892 199.713 2.3389 199.285 2.84001C198.946 2.06253 198.404 1.39038 197.717 0.893823C197.029 0.397264 196.221 0.0945272 195.376 0.0172304C192.298 -0.224192 192.237 2.12968 190.269 3.425C188.3 4.72033 186.675 3.01179 185.162 1.76754C184.884 2.47087 184.796 3.23501 184.907 3.98316C185.017 4.7313 185.323 5.43708 185.793 6.02957Z" fill="#604241"/>
<path d="M301.746 162.713C301.746 162.713 301.333 163.697 300.571 165.122C299.419 167.315 298.017 169.367 296.393 171.237L296.267 171.372H295.515L268.708 171.618H268.067L267.988 171.525L262.789 165.355L260.829 163.029L260.75 162.931L260.583 162.736L260.49 162.625L260.37 162.481L256.558 157.959L257.951 152.155L260.323 142.378L260.384 142.141L260.848 140.284L261.177 138.891L262.282 134.35L266.071 118.728L272.803 122.21L279.902 134.745L283.713 141.477H285.803C286.197 141.477 287.103 142.238 288.013 143.116C288.338 143.427 288.663 143.757 288.941 144.044C289.767 144.899 290.422 145.632 290.422 145.632C290.422 145.632 293.807 145.706 294.717 148.371C294.764 148.5 294.802 148.632 294.833 148.766C295.135 149.814 295.528 150.833 296.007 151.812C296.606 153.116 297.358 154.597 298.12 156.078C299.536 158.794 300.975 161.38 301.504 162.318L301.569 162.434L301.746 162.713Z" fill="#4F6D7A"/>
<path opacity="0.1" d="M261.865 141.751L261.818 142.415V142.461L261.739 143.529L261.122 152.123L260.374 162.476L260.161 165.392L259.696 171.632V171.711L210.019 172.175L128.497 173.057V173.447H128.432V173.057V172.927L128.641 166.26L129.04 153.232L129.384 142.187L129.416 141.087C129.437 140.423 129.592 139.77 129.873 139.168C130.155 138.566 130.555 138.027 131.052 137.586C131.548 137.144 132.129 136.808 132.759 136.598C133.39 136.388 134.056 136.309 134.718 136.365C136.91 136.551 139.756 136.779 143.159 137.02L144.552 137.122C164.205 138.487 200.525 140.251 237.175 138.051C237.945 138.009 238.721 137.962 239.496 137.907C245.179 137.549 250.857 137.09 256.479 136.514C257.19 136.439 257.908 136.522 258.584 136.755C259.259 136.988 259.875 137.367 260.389 137.864C260.902 138.361 261.301 138.964 261.556 139.632C261.811 140.3 261.916 141.015 261.865 141.728V141.751Z" fill="black"/>
<path d="M128.483 173.447V173.057L210.019 172.17L259.696 171.706H259.836V171.627L260.3 165.387L260.5 162.601L261.261 152.104L261.86 143.794V143.589C261.888 143.206 261.871 142.822 261.809 142.443C261.812 142.427 261.812 142.412 261.809 142.396C261.681 141.613 261.362 140.873 260.88 140.242C260.369 139.586 259.699 139.072 258.934 138.747C258.169 138.422 257.334 138.297 256.507 138.385C250.885 138.961 245.206 139.42 239.524 139.778C238.748 139.833 237.973 139.88 237.202 139.922C200.553 142.099 164.232 140.335 144.58 138.993L143.187 138.891C139.784 138.649 136.938 138.427 134.746 138.236C133.541 138.135 132.34 138.483 131.377 139.214C130.413 139.946 129.754 141.008 129.528 142.197C129.481 142.448 129.453 142.702 129.444 142.958L129.129 153.246L128.697 166.278L128.493 172.945V173.075V173.465L128.483 173.447Z" fill="#3F3D56"/>
<path opacity="0.1" d="M262.004 145.005L261.433 152.123L260.583 162.731L260.37 165.387L259.905 171.334L259.878 171.632V171.71L259.808 172.398L259.859 171.71H259.724L210.047 172.175L128.497 173.057V172.927L128.725 166.26L129.189 153.232L129.486 144.574C129.501 144.081 129.638 143.6 129.887 143.174C130.135 142.749 130.485 142.392 130.907 142.136C131.433 141.814 132.047 141.668 132.662 141.718C133.637 141.797 134.835 141.89 136.232 141.992C138.502 142.159 141.302 142.354 144.561 142.559C150.597 142.939 158.169 143.348 166.846 143.682C190.989 144.611 223.581 144.922 254.538 142.21C255.931 142.09 257.37 141.955 258.777 141.821C259.334 141.765 259.895 141.871 260.393 142.127C260.534 142.197 260.668 142.281 260.792 142.378C261.196 142.671 261.517 143.064 261.721 143.52C261.768 143.61 261.807 143.705 261.837 143.803C261.976 144.188 262.033 144.597 262.004 145.005Z" fill="black"/>
<path opacity="0.1" d="M104.508 151.361V152.842C104.508 153.381 104.356 153.908 104.068 154.364C103.781 154.819 103.37 155.183 102.883 155.414L84.2658 155.772C83.7707 155.545 83.3513 155.181 83.0575 154.722C82.7637 154.264 82.6077 153.73 82.6083 153.186V151.793L104.508 151.361Z" fill="black"/>
<path d="M104.74 156.287L80.4819 156.752V152.726L104.74 152.262V156.287Z" fill="#3F3D56"/>
<path opacity="0.1" d="M104.74 156.287L80.4819 156.752V152.726L104.74 152.262V156.287Z" fill="black"/>
<path d="M105.669 156.287L81.4105 156.752V152.726L105.669 152.262V156.287Z" fill="#3F3D56"/>
<g opacity="0.1">
<path opacity="0.1" d="M185.984 4.50674C185.53 3.91737 185.229 3.22532 185.106 2.49179C184.994 3.20887 185.061 3.94249 185.301 4.62746C185.532 4.60619 185.76 4.56581 185.984 4.50674Z" fill="black"/>
<path opacity="0.1" d="M180.087 7.58956C180 7.02039 179.942 6.44697 179.916 5.87173C179.916 6.44279 179.916 7.01849 179.916 7.59419L180.087 7.58956Z" fill="black"/>
<path opacity="0.1" d="M217.926 23.0824C217.951 22.6687 218.007 22.2575 218.093 21.852C218.312 21.1459 218.437 20.4136 218.464 19.6746C218.454 19.5087 218.429 19.344 218.39 19.1825C218.311 19.6096 218.186 20.0367 218.093 20.4592C217.907 21.3205 217.851 22.2045 217.926 23.0824Z" fill="black"/>
<path opacity="0.1" d="M208.269 8.73632L208.775 9.10309C209.201 8.79449 209.601 8.44965 209.968 8.0724C210.143 7.83077 210.251 7.54753 210.282 7.25098C210.313 6.95442 210.265 6.65494 210.144 6.38245C210.098 6.48843 210.039 6.58824 209.968 6.67957C209.397 7.41313 208.134 7.81706 208.269 8.73632Z" fill="black"/>
<path opacity="0.1" d="M170.119 13.2026C169.95 13.5412 169.815 13.8958 169.715 14.2612C170.442 13.8558 171.224 13.5601 172.037 13.3837L170.119 13.2026Z" fill="black"/>
<path opacity="0.1" d="M176.522 8.15132C176.217 7.98331 175.925 7.79241 175.649 7.58026C175.637 7.76393 175.651 7.94833 175.691 8.1281C175.968 8.11489 176.246 8.12265 176.522 8.15132Z" fill="black"/>
<path opacity="0.1" d="M221.914 35.5063C221.723 37.7581 220.674 39.9263 219.825 42.0619C218.121 46.3425 217.16 50.8831 216.44 55.4377C215.795 59.5186 215.047 64.1521 211.565 66.4131C210.57 67.0075 209.505 67.4754 208.394 67.8059C203.389 69.5377 198.343 71.2741 193.073 71.9055C187.804 72.5369 182.274 71.9844 177.678 69.3566C176.345 68.6612 175.201 67.6527 174.344 66.4177C173.105 64.4539 173.081 61.9932 172.487 59.7461C171.98 58.0776 171.36 56.4457 170.63 54.8619C169.604 52.3641 168.815 49.7549 168.03 47.1875C167.303 44.8011 166.577 42.4132 165.853 40.0237C165.614 39.3049 165.437 38.5672 165.323 37.8184C165.142 39.007 165.495 40.2512 165.853 41.4166C166.577 43.8091 167.303 46.197 168.03 48.5803C168.815 51.1663 169.604 53.757 170.63 56.2548C171.36 57.8385 171.98 59.4704 172.487 61.1389C173.072 63.386 173.095 65.8467 174.344 67.8106C175.201 69.0456 176.345 70.0541 177.678 70.7494C182.274 73.3772 187.818 73.9297 193.073 73.2983C198.329 72.6669 203.371 70.9305 208.394 69.1987C209.505 68.8682 210.57 68.4003 211.565 67.8059C215.024 65.5449 215.795 60.9114 216.44 56.8305C217.16 52.2759 218.121 47.7353 219.825 43.4547C220.837 40.9105 222.146 38.3245 221.923 35.5899C221.923 35.5621 221.914 35.5342 221.914 35.5063Z" fill="black"/>
<path opacity="0.1" d="M166.345 33.7096C166.345 33.7096 166.345 33.6771 166.345 33.6585C166.429 32.8398 166.356 32.0127 166.131 31.2211C166.039 30.7116 165.978 30.1968 165.95 29.6797C165.897 30.6615 165.958 31.6461 166.131 32.6139C166.206 32.976 166.289 33.3428 166.345 33.7096Z" fill="black"/>
<path opacity="0.1" d="M167.761 22.3535C168.118 21.7536 168.523 21.1837 168.973 20.6496C168.123 21.462 166.554 20.7378 166.224 19.6096C166.103 20.0659 166.103 20.5461 166.224 21.0024C166.338 21.3431 166.541 21.6475 166.811 21.8848C167.081 22.122 167.408 22.2837 167.761 22.3535Z" fill="black"/>
</g>
<path opacity="0.1" d="M283.718 141.472C283.718 141.472 285.19 146.811 283.718 151.454C282.246 156.097 283.718 141.472 283.718 141.472Z" fill="black"/>
<path opacity="0.1" d="M289.986 146.918C289.986 146.918 290.603 153.697 289.21 154.899C287.818 156.102 289.986 146.918 289.986 146.918Z" fill="black"/>
<path d="M15.7853 42.2755L62.9602 41.8112" stroke="#4F6D7A" stroke-width="2" stroke-miterlimit="10"/>
<path d="M15.7853 48.065L62.9602 47.6053" stroke="#4F6D7A" stroke-width="2" stroke-miterlimit="10"/>
<path d="M15.7853 53.8591L62.9602 53.3949" stroke="#4F6D7A" stroke-width="2" stroke-miterlimit="10"/>
</svg>
